<svg width="2724" height="1197" xmlns="http://www.w3.org/2000/svg" overflow="hidden"><defs><clipPath id="a"><path d="M1326 171h2724v1197H1326z"/></clipPath><clipPath id="b"><path d="M1326 171h2722v1195H1326z"/></clipPath><clipPath id="c"><path d="M1326 171h2722v1195H1326z"/></clipPath><clipPath id="d"><path d="M1326 171h2722v1195H1326z"/></clipPath><clipPath id="e"><path d="M1499 341h2502v880H1499z"/></clipPath><clipPath id="f"><path d="M1499 341h2502v880H1499z"/></clipPath><clipPath id="g"><path d="M1499 341h2502v880H1499z"/></clipPath><clipPath id="h"><path d="M1326 171h2722v1195H1326z"/></clipPath><clipPath id="i"><path d="M1326 171h2722v1195H1326z"/></clipPath><clipPath id="j"><path d="M1326 171h2722v1195H1326z"/></clipPath><clipPath id="k"><path d="M1326 171h2722v1195H1326z"/></clipPath><clipPath id="l"><path d="M1326 171h2722v1195H1326z"/></clipPath><clipPath id="m"><path d="M1326 171h2722v1195H1326z"/></clipPath><clipPath id="n"><path d="M1326 171h2722v1195H1326z"/></clipPath><clipPath id="o"><path d="M1326 171h2722v1195H1326z"/></clipPath><clipPath id="p"><path d="M1326 171h2722v1195H1326z"/></clipPath><clipPath id="q"><path d="M1326 171h2722v1195H1326z"/></clipPath><clipPath id="r"><path d="M1326 171h2722v1195H1326z"/></clipPath><clipPath id="s"><path d="M1326 171h2722v1195H1326z"/></clipPath><clipPath id="t"><path d="M1326 171h2722v1195H1326z"/></clipPath><clipPath id="u"><path d="M1326 171h2722v1195H1326z"/></clipPath><clipPath id="v"><path d="M1326 171h2722v1195H1326z"/></clipPath><clipPath id="w"><path d="M1326 171h2722v1195H1326z"/></clipPath><clipPath id="x"><path d="M1326 171h2722v1195H1326z"/></clipPath><clipPath id="y"><path d="M1326 171h2722v1195H1326z"/></clipPath><clipPath id="z"><path d="M1326 171h2722v1195H1326z"/></clipPath><clipPath id="A"><path d="M1326 171h2722v1195H1326z"/></clipPath><clipPath id="B"><path d="M1326 171h2722v1195H1326z"/></clipPath><clipPath id="C"><path d="M1326 171h2722v1195H1326z"/></clipPath><clipPath id="D"><path d="M1326 171h2722v1195H1326z"/></clipPath><clipPath id="E"><path d="M1326 171h2722v1195H1326z"/></clipPath><clipPath id="F"><path d="M1326 171h2722v1195H1326z"/></clipPath><clipPath id="G"><path d="M1326 171h2722v1195H1326z"/></clipPath><clipPath id="H"><path d="M1326 171h2722v1195H1326z"/></clipPath><clipPath id="I"><path d="M1326 171h2722v1195H1326z"/></clipPath><clipPath id="J"><path d="M1326 171h2722v1195H1326z"/></clipPath><clipPath id="K"><path d="M1326 171h2722v1195H1326z"/></clipPath><clipPath id="L"><path d="M1326 171h2722v1195H1326z"/></clipPath><clipPath id="M"><path d="M1326 171h2722v1195H1326z"/></clipPath><clipPath id="N"><path d="M1326 171h2722v1195H1326z"/></clipPath><clipPath id="O"><path d="M1326 171h2722v1195H1326z"/></clipPath><clipPath id="P"><path d="M1326 171h2722v1195H1326z"/></clipPath><clipPath id="Q"><path d="M1326 171h2722v1195H1326z"/></clipPath><clipPath id="R"><path d="M1326 171h2722v1195H1326z"/></clipPath><clipPath id="S"><path d="M1326 171h2722v1195H1326z"/></clipPath><clipPath id="T"><path d="M1326 171h2722v1195H1326z"/></clipPath><clipPath id="U"><path d="M1326 171h2722v1195H1326z"/></clipPath><clipPath id="V"><path d="M1326 171h2722v1195H1326z"/></clipPath><clipPath id="W"><path d="M1326 171h2722v1195H1326z"/></clipPath><clipPath id="X"><path d="M1326 171h2722v1195H1326z"/></clipPath><clipPath id="Y"><path d="M1326 171h2722v1195H1326z"/></clipPath><clipPath id="Z"><path d="M1326 171h2722v1195H1326z"/></clipPath><clipPath id="aa"><path d="M1326 171h2722v1195H1326z"/></clipPath><clipPath id="ab"><path d="M1326 171h2722v1195H1326z"/></clipPath><clipPath id="ac"><path d="M1326 171h2722v1195H1326z"/></clipPath><clipPath id="ad"><path d="M1326 171h2722v1195H1326z"/></clipPath><clipPath id="ae"><path d="M1326 171h2722v1195H1326z"/></clipPath><clipPath id="af"><path d="M1326 171h2722v1195H1326z"/></clipPath><clipPath id="ag"><path d="M1326 171h2722v1195H1326z"/></clipPath><clipPath id="ah"><path d="M1326 171h2723v1196H1326z"/></clipPath></defs><g clip-path="url(#a)" transform="translate(-1326 -171)"><path fill="#FFF" d="M1327 172h2721v1194H1327z"/><g clip-path="url(#b)"><path d="M1499.5 1130.54h2498m-2498-87.01h2498m-2498-87.999h2498m-2498-88.002h2498m-2498-87.003h2498m-2498-88.003h2498m-2498-88.003h2498m-2498-87.003h2498m-2498-88.003h2498m-2498-88.014h2498" stroke="#D9D9D9" stroke-width="3.438" stroke-linejoin="round" stroke-miterlimit="10" fill="none"/></g><g clip-path="url(#c)"><path d="M1499.5 341.5v877m78.05-877v877m78-877v877m78.01-877v877m78-877v877m78-877v877m78-877v877m78.01-877v877m78-877v877m79-877v877m78-877v877m78.01-877v877m78-877v877m78-877v877m78.01-877v877m78-877v877m78-877v877m78-877v877m78.01-877v877m78-877v877m78-877v877m78-877v877m79.01-877v877m78-877v877m78-877v877m78-877v877m78.01-877v877m78-877v877m78-877v877m78-877v877m78.01-877v877m78-877v877m77.87-877v877" stroke="#D9D9D9" stroke-width="3.438" stroke-linejoin="round" stroke-miterlimit="10" fill="none"/></g><g clip-path="url(#d)"><path d="M1499.5 1218.5h2498" stroke="#D9D9D9" stroke-width="3.438" stroke-linejoin="round" stroke-miterlimit="10" fill="none"/></g><g clip-path="url(#e)"><path d="M1499.5 625.521h156.05l78.01-3h234l78.01-5.001h78l79 60.002 78 3.001 78.01 1 78 13.977h78l78.01-2.977 78-30.001 78-14.001 78-47.001 78.01 31.001 78-14.001 78-36.001 78-91.019 79.01 122.02 78 2 78 1 78-10 78.01-5h78l78-1 78 7 78.01 12.001 78-8.001 77.87 18.001" stroke="#00878F" stroke-width="11.458" stroke-linecap="round" stroke-linejoin="round" stroke-miterlimit="10" fill="none"/></g><g clip-path="url(#f)"><path d="M1499.5 726.524l78.05-4h390.01l78.01-10h78l79-1 78-94.004 78.01-52.001 78 33.001h78l78.01-1 78-4 78-20.001 78-24.001 78.01 15.001 78-48.002 78 13.001 78-87.018 79.01 137.019 78 133.005h156l78.01 1h78l78 1h78l78.01 1h78l77.87 15.976" stroke="#E47128" stroke-width="11.458" stroke-linecap="round" stroke-linejoin="round" stroke-miterlimit="10" fill="none"/></g><g clip-path="url(#g)"><path d="M2671 607.02l78.09-14.001 78 5.001 78.01 8 78-6 78-35.001 78-110.019 78.01 150.02 78 1h78l78-13.001 78.01 1h78l78-5h79l78.01-7 78 12L3998 608" stroke="#62AEB2" stroke-width="10.313" stroke-linecap="round" stroke-linejoin="round" stroke-miterlimit="10" fill="none"/></g><g clip-path="url(#h)"><text fill="#595959" font-family="Calibri,Calibri_MSFontService,sans-serif" font-weight="400" font-size="41" transform="translate(1440.29 1230)">0</text></g><g clip-path="url(#i)"><text fill="#595959" font-family="Calibri,Calibri_MSFontService,sans-serif" font-weight="400" font-size="41" transform="translate(1377.59 1142)">1000</text></g><g clip-path="url(#j)"><text fill="#595959" font-family="Calibri,Calibri_MSFontService,sans-serif" font-weight="400" font-size="41" transform="translate(1377.59 1055)">2000</text></g><g clip-path="url(#k)"><text fill="#595959" font-family="Calibri,Calibri_MSFontService,sans-serif" font-weight="400" font-size="41" transform="translate(1377.59 967)">3000</text></g><g clip-path="url(#l)"><text fill="#595959" font-family="Calibri,Calibri_MSFontService,sans-serif" font-weight="400" font-size="41" transform="translate(1377.59 879)">4000</text></g><g clip-path="url(#m)"><text fill="#595959" font-family="Calibri,Calibri_MSFontService,sans-serif" font-weight="400" font-size="41" transform="translate(1377.59 792)">5000</text></g><g clip-path="url(#n)"><text fill="#595959" font-family="Calibri,Calibri_MSFontService,sans-serif" font-weight="400" font-size="41" transform="translate(1377.59 704)">6000</text></g><g clip-path="url(#o)"><text fill="#595959" font-family="Calibri,Calibri_MSFontService,sans-serif" font-weight="400" font-size="41" transform="translate(1377.59 616)">7000</text></g><g clip-path="url(#p)"><text fill="#595959" font-family="Calibri,Calibri_MSFontService,sans-serif" font-weight="400" font-size="41" transform="translate(1377.59 529)">8000</text></g><g clip-path="url(#q)"><text fill="#595959" font-family="Calibri,Calibri_MSFontService,sans-serif" font-weight="400" font-size="41" transform="translate(1377.59 441)">9000</text></g><g clip-path="url(#r)"><text fill="#595959" font-family="Calibri,Calibri_MSFontService,sans-serif" font-weight="400" font-size="41" transform="translate(1356.69 353)">10000</text></g><g clip-path="url(#s)"><text fill="#595959" font-family="Calibri,Calibri_MSFontService,sans-serif" font-weight="400" font-size="41" transform="rotate(-90 1414.64 -98.64)">v5.0</text></g><g clip-path="url(#t)"><text fill="#595959" font-family="Calibri,Calibri_MSFontService,sans-serif" font-weight="400" font-size="41" transform="rotate(-90 1453.68 -137.68)">v5.1</text></g><g clip-path="url(#u)"><text fill="#595959" font-family="Calibri,Calibri_MSFontService,sans-serif" font-weight="400" font-size="41" transform="rotate(-90 1492.715 -176.715)">v5.2</text></g><g clip-path="url(#v)"><text fill="#595959" font-family="Calibri,Calibri_MSFontService,sans-serif" font-weight="400" font-size="41" transform="rotate(-90 1531.755 -215.755)">v5.3</text></g><g clip-path="url(#w)"><text fill="#595959" font-family="Calibri,Calibri_MSFontService,sans-serif" font-weight="400" font-size="41" transform="rotate(-90 1570.795 -254.795)">v5.4</text></g><g clip-path="url(#x)"><text fill="#595959" font-family="Calibri,Calibri_MSFontService,sans-serif" font-weight="400" font-size="41" transform="rotate(-90 1609.83 -293.83)">v5.5</text></g><g clip-path="url(#y)"><text fill="#595959" font-family="Calibri,Calibri_MSFontService,sans-serif" font-weight="400" font-size="41" transform="rotate(-90 1648.87 -332.87)">v5.5</text></g><g clip-path="url(#z)"><text fill="#595959" font-family="Calibri,Calibri_MSFontService,sans-serif" font-weight="400" font-size="41" transform="rotate(-90 1687.91 -371.91)">v5.6</text></g><g clip-path="url(#A)"><text fill="#595959" font-family="Calibri,Calibri_MSFontService,sans-serif" font-weight="400" font-size="41" transform="rotate(-90 1726.945 -410.945)">v5.7</text></g><g clip-path="url(#B)"><text fill="#595959" font-family="Calibri,Calibri_MSFontService,sans-serif" font-weight="400" font-size="41" transform="rotate(-90 1765.985 -449.985)">v5.8</text></g><g clip-path="url(#C)"><text fill="#595959" font-family="Calibri,Calibri_MSFontService,sans-serif" font-weight="400" font-size="41" transform="rotate(-90 1805.025 -489.025)">v5.9</text></g><g clip-path="url(#D)"><text fill="#595959" font-family="Calibri,Calibri_MSFontService,sans-serif" font-weight="400" font-size="41" transform="rotate(-90 1854.06 -518.06)">v5.10</text></g><g clip-path="url(#E)"><text fill="#595959" font-family="Calibri,Calibri_MSFontService,sans-serif" font-weight="400" font-size="41" transform="rotate(-90 1893.1 -557.1)">v5.11</text></g><g clip-path="url(#F)"><text fill="#595959" font-family="Calibri,Calibri_MSFontService,sans-serif" font-weight="400" font-size="41" transform="rotate(-90 1932.135 -596.135)">v5.12</text></g><g clip-path="url(#G)"><text fill="#595959" font-family="Calibri,Calibri_MSFontService,sans-serif" font-weight="400" font-size="41" transform="rotate(-90 1971.175 -635.175)">v5.13</text></g><g clip-path="url(#H)"><text fill="#595959" font-family="Calibri,Calibri_MSFontService,sans-serif" font-weight="400" font-size="41" transform="rotate(-90 2000.215 -684.215)">v6.0</text></g><g clip-path="url(#I)"><text fill="#595959" font-family="Calibri,Calibri_MSFontService,sans-serif" font-weight="400" font-size="41" transform="rotate(-90 2039.25 -723.25)">v6.1</text></g><g clip-path="url(#J)"><text fill="#595959" font-family="Calibri,Calibri_MSFontService,sans-serif" font-weight="400" font-size="41" transform="rotate(-90 2078.29 -762.29)">v6.2</text></g><g clip-path="url(#K)"><text fill="#595959" font-family="Calibri,Calibri_MSFontService,sans-serif" font-weight="400" font-size="41" transform="rotate(-90 2117.33 -801.33)">v6.3</text></g><g clip-path="url(#L)"><text fill="#595959" font-family="Calibri,Calibri_MSFontService,sans-serif" font-weight="400" font-size="41" transform="rotate(-90 2156.365 -840.365)">v6.4</text></g><g clip-path="url(#M)"><text fill="#595959" font-family="Calibri,Calibri_MSFontService,sans-serif" font-weight="400" font-size="41" transform="rotate(-90 2195.405 -879.405)">v6.5</text></g><g clip-path="url(#N)"><text fill="#595959" font-family="Calibri,Calibri_MSFontService,sans-serif" font-weight="400" font-size="41" transform="rotate(-90 2234.445 -918.445)">v6.6</text></g><g clip-path="url(#O)"><text fill="#595959" font-family="Calibri,Calibri_MSFontService,sans-serif" font-weight="400" font-size="41" transform="rotate(-90 2273.48 -957.48)">v6.7</text></g><g clip-path="url(#P)"><text fill="#595959" font-family="Calibri,Calibri_MSFontService,sans-serif" font-weight="400" font-size="41" transform="rotate(-90 2312.52 -996.52)">v6.8</text></g><g clip-path="url(#Q)"><text fill="#595959" font-family="Calibri,Calibri_MSFontService,sans-serif" font-weight="400" font-size="41" transform="rotate(-90 2351.56 -1035.56)">v6.9</text></g><g clip-path="url(#R)"><text fill="#595959" font-family="Calibri,Calibri_MSFontService,sans-serif" font-weight="400" font-size="41" transform="matrix(0 -1 1 0 3465.19 1336)">v6.10</text></g><g clip-path="url(#S)"><text fill="#595959" font-family="Calibri,Calibri_MSFontService,sans-serif" font-weight="400" font-size="41" transform="matrix(0 -1 1 0 3543.27 1336)">v6.11</text></g><g clip-path="url(#T)"><text fill="#595959" font-family="Calibri,Calibri_MSFontService,sans-serif" font-weight="400" font-size="41" transform="rotate(-90 2478.67 -1142.67)">v6.12</text></g><g clip-path="url(#U)"><text fill="#595959" font-family="Calibri,Calibri_MSFontService,sans-serif" font-weight="400" font-size="41" transform="rotate(-90 2517.71 -1181.71)">v6.13</text></g><g clip-path="url(#V)"><text fill="#595959" font-family="Calibri,Calibri_MSFontService,sans-serif" font-weight="400" font-size="41" transform="rotate(-90 2556.75 -1220.75)">v6.14</text></g><g clip-path="url(#W)"><text fill="#595959" font-family="Calibri,Calibri_MSFontService,sans-serif" font-weight="400" font-size="41" transform="matrix(0 -1 1 0 3855.57 1336)">v6.15</text></g><g clip-path="url(#X)"><text fill="#595959" font-family="Calibri,Calibri_MSFontService,sans-serif" font-weight="400" font-size="41" transform="matrix(0 -1 1 0 3933.65 1336)">v6.16</text></g><g clip-path="url(#Y)"><text fill="#595959" font-family="Calibri,Calibri_MSFontService,sans-serif" font-weight="400" font-size="41" transform="matrix(0 -1 1 0 4011.73 1336)">v6.17</text></g><g clip-path="url(#Z)"><text fill="#595959" font-family="Calibri,Calibri_MSFontService,sans-serif" font-weight="400" font-size="64" transform="translate(2367.46 267)">Code size on ATmega328</text></g><g clip-path="url(#aa)"><path fill="#E7E6E6" d="M1566 857h670v289h-670z"/></g><g clip-path="url(#ab)"><path d="M1616.5 905.5h88" stroke="#00878F" stroke-width="11.458" stroke-linecap="round" stroke-linejoin="round" stroke-miterlimit="10" fill="none"/></g><g clip-path="url(#ac)"><text fill="#595959" font-family="Calibri,Calibri_MSFontService,sans-serif" font-weight="400" font-size="50" transform="translate(1713.7 920)">JsonParserExample</text></g><g clip-path="url(#ad)"><path d="M1616.5 1001.5h88" stroke="#E47128" stroke-width="11.458" stroke-linecap="round" stroke-linejoin="round" stroke-miterlimit="10" fill="none"/></g><g clip-path="url(#ae)"><text fill="#595959" font-family="Calibri,Calibri_MSFontService,sans-serif" font-weight="400" font-size="50" transform="translate(1713.7 1016)">JsonGeneratorExample</text></g><g clip-path="url(#af)"><path d="M1616 1098h88" stroke="#62AEB2" stroke-width="10.313" stroke-linecap="round" stroke-linejoin="round" stroke-miterlimit="10" fill="none"/></g><g clip-path="url(#ag)"><text fill="#595959" font-family="Calibri,Calibri_MSFontService,sans-serif" font-weight="400" font-size="50" transform="translate(1713.7 1112)">MsgPackParser</text></g><path stroke="#D9D9D9" stroke-width="3.438" stroke-linejoin="round" stroke-miterlimit="10" fill="none" d="M1327.5 172.5h2721v1194h-2721z"/><g clip-path="url(#ah)"><path d="M2669.5 342.5l3.46 878.66" stroke="#000" stroke-width="4.583" stroke-miterlimit="8" fill="none"/></g></g></svg>