<svg width="2704" height="1128" xmlns="http://www.w3.org/2000/svg" xmlns:xlink="http://www.w3.org/1999/xlink" overflow="hidden"><defs><clipPath id="clip0"><rect x="1318" y="163" width="2704" height="1128"/></clipPath><clipPath id="clip1"><rect x="1318" y="163" width="2702" height="1125"/></clipPath><clipPath id="clip2"><rect x="1318" y="163" width="2702" height="1125"/></clipPath><clipPath id="clip3"><rect x="1318" y="163" width="2702" height="1125"/></clipPath><clipPath id="clip4"><rect x="1486" y="333" width="2482" height="811"/></clipPath><clipPath id="clip5"><rect x="1486" y="333" width="2482" height="811"/></clipPath><clipPath id="clip6"><rect x="1486" y="333" width="2482" height="811"/></clipPath><clipPath id="clip7"><rect x="1318" y="163" width="2702" height="1125"/></clipPath><clipPath id="clip8"><rect x="1318" y="163" width="2702" height="1125"/></clipPath><clipPath id="clip9"><rect x="1318" y="163" width="2702" height="1125"/></clipPath><clipPath id="clip10"><rect x="1318" y="163" width="2702" height="1125"/></clipPath><clipPath id="clip11"><rect x="1318" y="163" width="2702" height="1125"/></clipPath><clipPath id="clip12"><rect x="1318" y="163" width="2702" height="1125"/></clipPath><clipPath id="clip13"><rect x="1318" y="163" width="2702" height="1125"/></clipPath><clipPath id="clip14"><rect x="1318" y="163" width="2702" height="1125"/></clipPath><clipPath id="clip15"><rect x="1318" y="163" width="2702" height="1125"/></clipPath><clipPath id="clip16"><rect x="1318" y="163" width="2702" height="1125"/></clipPath><clipPath id="clip17"><rect x="1318" y="163" width="2702" height="1125"/></clipPath><clipPath id="clip18"><rect x="1318" y="163" width="2702" height="1125"/></clipPath><clipPath id="clip19"><rect x="1318" y="163" width="2702" height="1125"/></clipPath><clipPath id="clip20"><rect x="1318" y="163" width="2702" height="1125"/></clipPath><clipPath id="clip21"><rect x="1318" y="163" width="2702" height="1125"/></clipPath><clipPath id="clip22"><rect x="1318" y="163" width="2702" height="1125"/></clipPath><clipPath id="clip23"><rect x="1318" y="163" width="2702" height="1125"/></clipPath><clipPath id="clip24"><rect x="1318" y="163" width="2702" height="1125"/></clipPath><clipPath id="clip25"><rect x="1318" y="163" width="2702" height="1125"/></clipPath><clipPath id="clip26"><rect x="1318" y="163" width="2702" height="1125"/></clipPath><clipPath id="clip27"><rect x="1318" y="163" width="2702" height="1125"/></clipPath><clipPath id="clip28"><rect x="1318" y="163" width="2702" height="1125"/></clipPath><clipPath id="clip29"><rect x="1318" y="163" width="2702" height="1125"/></clipPath><clipPath id="clip30"><rect x="1318" y="163" width="2702" height="1125"/></clipPath><clipPath id="clip31"><rect x="1318" y="163" width="2702" height="1125"/></clipPath><clipPath id="clip32"><rect x="1318" y="163" width="2702" height="1125"/></clipPath><clipPath id="clip33"><rect x="1318" y="163" width="2702" height="1125"/></clipPath><clipPath id="clip34"><rect x="1318" y="163" width="2702" height="1125"/></clipPath><clipPath id="clip35"><rect x="1318" y="163" width="2702" height="1125"/></clipPath><clipPath id="clip36"><rect x="1318" y="163" width="2702" height="1125"/></clipPath><clipPath id="clip37"><rect x="1318" y="163" width="2702" height="1125"/></clipPath><clipPath id="clip38"><rect x="1318" y="163" width="2702" height="1125"/></clipPath><clipPath id="clip39"><rect x="1318" y="163" width="2702" height="1125"/></clipPath><clipPath id="clip40"><rect x="1318" y="163" width="2702" height="1125"/></clipPath><clipPath id="clip41"><rect x="1318" y="163" width="2702" height="1125"/></clipPath><clipPath id="clip42"><rect x="1318" y="163" width="2702" height="1125"/></clipPath><clipPath id="clip43"><rect x="1318" y="163" width="2702" height="1125"/></clipPath><clipPath id="clip44"><rect x="1318" y="163" width="2702" height="1125"/></clipPath></defs><g clip-path="url(#clip0)" transform="translate(-1318 -163)"><rect x="1319" y="164" width="2701" height="1125" fill="#FFFFFF"/><g clip-path="url(#clip1)"><path d="M1486.5 1060.53 3965.5 1060.53M1486.5 979.532 3965.5 979.532M1486.5 898.53 3965.5 898.53M1486.5 817.527 3965.5 817.527M1486.5 737.524 3965.5 737.524M1486.5 656.522 3965.5 656.522M1486.5 575.519 3965.5 575.519M1486.5 494.516 3965.5 494.516M1486.5 414.514 3965.5 414.514M1486.5 333.5 3965.5 333.5" stroke="#D9D9D9" stroke-width="3.4375" stroke-linejoin="round" stroke-miterlimit="10" fill="none"/></g><g clip-path="url(#clip2)"><path d="M1486.5 333.5 1486.5 1140.5M1624.55 333.5 1624.55 1140.5M1762.56 333.5 1762.56 1140.5M1899.56 333.5 1899.56 1140.5M2037.57 333.5 2037.57 1140.5M2175.57 333.5 2175.57 1140.5M2312.58 333.5 2312.58 1140.5M2450.58 333.5 2450.58 1140.5M2588.58 333.5 2588.58 1140.5M2726.59 333.5 2726.59 1140.5M2863.59 333.5 2863.59 1140.5M3001.6 333.5 3001.6 1140.5M3139.6 333.5 3139.6 1140.5M3276.61 333.5 3276.61 1140.5M3414.61 333.5 3414.61 1140.5M3552.62 333.5 3552.62 1140.5M3689.62 333.5 3689.62 1140.5M3827.63 333.5 3827.63 1140.5M3965.5 333.5 3965.5 1140.5" stroke="#D9D9D9" stroke-width="3.4375" stroke-linejoin="round" stroke-miterlimit="10" fill="none"/></g><g clip-path="url(#clip3)"><path d="M1486.5 1140.5 3965.5 1140.5" stroke="#D9D9D9" stroke-width="3.4375" stroke-linejoin="round" stroke-miterlimit="10" fill="none" fill-rule="evenodd"/></g><g clip-path="url(#clip4)"><path d="M1486.5 629.5 1624.55 615.52 1762.56 573.519 1899.56 601.52 2037.57 588.519 2175.57 554.518 2312.58 471.5 2450.58 583.519 2588.58 585.519 2726.59 586.519 2863.59 577.519 3001.6 572.519 3139.6 572.519 3276.61 571.519 3414.61 578.519 3552.62 589.52 3689.62 581.519 3827.63 598.52 3965.5 599.52" stroke="#00878F" stroke-width="11.4583" stroke-linecap="round" stroke-linejoin="round" stroke-miterlimit="10" fill="none"/></g><g clip-path="url(#clip5)"><path d="M1486.5 565.519 1624.55 546.518 1762.56 524.517 1899.56 538.518 2037.57 494.516 2175.57 506.517 2312.58 425.5 2450.58 552.518 2588.58 674.522 2726.59 674.522 2863.59 674.522 3001.6 676.522 3139.6 676.522 3276.61 676.522 3414.61 676.522 3552.62 677.522 3689.62 677.522 3827.63 692.523 3965.5 700.5" stroke="#E47128" stroke-width="11.4583" stroke-linecap="round" stroke-linejoin="round" stroke-miterlimit="10" fill="none"/></g><g clip-path="url(#clip6)"><path d="M1487 578.019 1625.05 565.019 1762.06 570.019 1900.06 577.019 2038.07 571.019 2175.07 539.018 2313.08 438 2451.08 576.019 2588.08 577.019 2726.09 577.019 2864.09 565.019 3001.1 566.019 3139.1 566.019 3277.11 562.018 3414.11 562.018 3552.12 555.018 3690.12 566.019 3828.13 579 3965 567.019" stroke="#62AEB2" stroke-width="10.3125" stroke-linecap="round" stroke-linejoin="round" stroke-miterlimit="10" fill="none"/></g><g clip-path="url(#clip7)"><text fill="#595959" font-family="Calibri,Calibri_MSFontService,sans-serif" font-weight="400" font-size="41" transform="matrix(1 0 0 1 1427.72 1152)">0</text></g><g clip-path="url(#clip8)"><text fill="#595959" font-family="Calibri,Calibri_MSFontService,sans-serif" font-weight="400" font-size="41" transform="matrix(1 0 0 1 1365.02 1072)">1000</text></g><g clip-path="url(#clip9)"><text fill="#595959" font-family="Calibri,Calibri_MSFontService,sans-serif" font-weight="400" font-size="41" transform="matrix(1 0 0 1 1365.02 991)">2000</text></g><g clip-path="url(#clip10)"><text fill="#595959" font-family="Calibri,Calibri_MSFontService,sans-serif" font-weight="400" font-size="41" transform="matrix(1 0 0 1 1365.02 910)">3000</text></g><g clip-path="url(#clip11)"><text fill="#595959" font-family="Calibri,Calibri_MSFontService,sans-serif" font-weight="400" font-size="41" transform="matrix(1 0 0 1 1365.02 829)">4000</text></g><g clip-path="url(#clip12)"><text fill="#595959" font-family="Calibri,Calibri_MSFontService,sans-serif" font-weight="400" font-size="41" transform="matrix(1 0 0 1 1365.02 749)">5000</text></g><g clip-path="url(#clip13)"><text fill="#595959" font-family="Calibri,Calibri_MSFontService,sans-serif" font-weight="400" font-size="41" transform="matrix(1 0 0 1 1365.02 668)">6000</text></g><g clip-path="url(#clip14)"><text fill="#595959" font-family="Calibri,Calibri_MSFontService,sans-serif" font-weight="400" font-size="41" transform="matrix(1 0 0 1 1365.02 587)">7000</text></g><g clip-path="url(#clip15)"><text fill="#595959" font-family="Calibri,Calibri_MSFontService,sans-serif" font-weight="400" font-size="41" transform="matrix(1 0 0 1 1365.02 507)">8000</text></g><g clip-path="url(#clip16)"><text fill="#595959" font-family="Calibri,Calibri_MSFontService,sans-serif" font-weight="400" font-size="41" transform="matrix(1 0 0 1 1365.02 426)">9000</text></g><g clip-path="url(#clip17)"><text fill="#595959" font-family="Calibri,Calibri_MSFontService,sans-serif" font-weight="400" font-size="41" transform="matrix(1 0 0 1 1344.12 345)">10000</text></g><g clip-path="url(#clip18)"><text fill="#595959" font-family="Calibri,Calibri_MSFontService,sans-serif" font-weight="400" font-size="41" transform="matrix(6.12323e-17 -1 1 6.12323e-17 1500.72 1238)">v6.0</text></g><g clip-path="url(#clip19)"><text fill="#595959" font-family="Calibri,Calibri_MSFontService,sans-serif" font-weight="400" font-size="41" transform="matrix(6.12323e-17 -1 1 6.12323e-17 1638.41 1238)">v6.1</text></g><g clip-path="url(#clip20)"><text fill="#595959" font-family="Calibri,Calibri_MSFontService,sans-serif" font-weight="400" font-size="41" transform="matrix(6.12323e-17 -1 1 6.12323e-17 1776.1 1238)">v6.2</text></g><g clip-path="url(#clip21)"><text fill="#595959" font-family="Calibri,Calibri_MSFontService,sans-serif" font-weight="400" font-size="41" transform="matrix(6.12323e-17 -1 1 6.12323e-17 1913.8 1238)">v6.3</text></g><g clip-path="url(#clip22)"><text fill="#595959" font-family="Calibri,Calibri_MSFontService,sans-serif" font-weight="400" font-size="41" transform="matrix(6.12323e-17 -1 1 6.12323e-17 2051.49 1238)">v6.4</text></g><g clip-path="url(#clip23)"><text fill="#595959" font-family="Calibri,Calibri_MSFontService,sans-serif" font-weight="400" font-size="41" transform="matrix(6.12323e-17 -1 1 6.12323e-17 2189.18 1238)">v6.5</text></g><g clip-path="url(#clip24)"><text fill="#595959" font-family="Calibri,Calibri_MSFontService,sans-serif" font-weight="400" font-size="41" transform="matrix(6.12323e-17 -1 1 6.12323e-17 2326.88 1238)">v6.6</text></g><g clip-path="url(#clip25)"><text fill="#595959" font-family="Calibri,Calibri_MSFontService,sans-serif" font-weight="400" font-size="41" transform="matrix(6.12323e-17 -1 1 6.12323e-17 2464.57 1238)">v6.7</text></g><g clip-path="url(#clip26)"><text fill="#595959" font-family="Calibri,Calibri_MSFontService,sans-serif" font-weight="400" font-size="41" transform="matrix(6.12323e-17 -1 1 6.12323e-17 2602.27 1238)">v6.8</text></g><g clip-path="url(#clip27)"><text fill="#595959" font-family="Calibri,Calibri_MSFontService,sans-serif" font-weight="400" font-size="41" transform="matrix(6.12323e-17 -1 1 6.12323e-17 2739.96 1238)">v6.9</text></g><g clip-path="url(#clip28)"><text fill="#595959" font-family="Calibri,Calibri_MSFontService,sans-serif" font-weight="400" font-size="41" transform="matrix(6.12323e-17 -1 1 6.12323e-17 2877.65 1259)">v6.10</text></g><g clip-path="url(#clip29)"><text fill="#595959" font-family="Calibri,Calibri_MSFontService,sans-serif" font-weight="400" font-size="41" transform="matrix(6.12323e-17 -1 1 6.12323e-17 3015.35 1259)">v6.11</text></g><g clip-path="url(#clip30)"><text fill="#595959" font-family="Calibri,Calibri_MSFontService,sans-serif" font-weight="400" font-size="41" transform="matrix(6.12323e-17 -1 1 6.12323e-17 3153.04 1259)">v6.12</text></g><g clip-path="url(#clip31)"><text fill="#595959" font-family="Calibri,Calibri_MSFontService,sans-serif" font-weight="400" font-size="41" transform="matrix(6.12323e-17 -1 1 6.12323e-17 3290.73 1259)">v6.13</text></g><g clip-path="url(#clip32)"><text fill="#595959" font-family="Calibri,Calibri_MSFontService,sans-serif" font-weight="400" font-size="41" transform="matrix(6.12323e-17 -1 1 6.12323e-17 3428.43 1259)">v6.14</text></g><g clip-path="url(#clip33)"><text fill="#595959" font-family="Calibri,Calibri_MSFontService,sans-serif" font-weight="400" font-size="41" transform="matrix(6.12323e-17 -1 1 6.12323e-17 3566.12 1259)">v6.15</text></g><g clip-path="url(#clip34)"><text fill="#595959" font-family="Calibri,Calibri_MSFontService,sans-serif" font-weight="400" font-size="41" transform="matrix(6.12323e-17 -1 1 6.12323e-17 3703.82 1259)">v6.16</text></g><g clip-path="url(#clip35)"><text fill="#595959" font-family="Calibri,Calibri_MSFontService,sans-serif" font-weight="400" font-size="41" transform="matrix(6.12323e-17 -1 1 6.12323e-17 3841.51 1259)">v6.17</text></g><g clip-path="url(#clip36)"><text fill="#595959" font-family="Calibri,Calibri_MSFontService,sans-serif" font-weight="400" font-size="41" transform="matrix(6.12323e-17 -1 1 6.12323e-17 3979.2 1259)">v6.18</text></g><g clip-path="url(#clip37)"><text fill="#595959" font-family="Calibri,Calibri_MSFontService,sans-serif" font-weight="400" font-size="64" transform="matrix(1 0 0 1 2349.5 259)">Code size on ATmega328</text></g><g clip-path="url(#clip38)"><rect x="1556" y="809" width="665" height="272" fill="#E7E6E6"/></g><g clip-path="url(#clip39)"><path d="M1604.5 854.5 1692.5 854.5" stroke="#00878F" stroke-width="11.4583" stroke-linecap="round" stroke-linejoin="round" stroke-miterlimit="10" fill="none" fill-rule="evenodd"/></g><g clip-path="url(#clip40)"><text fill="#595959" font-family="Calibri,Calibri_MSFontService,sans-serif" font-weight="400" font-size="50" transform="matrix(1 0 0 1 1701.53 869)">JsonParserExample</text></g><g clip-path="url(#clip41)"><path d="M1604.5 945.5 1692.5 945.501" stroke="#E47128" stroke-width="11.4583" stroke-linecap="round" stroke-linejoin="round" stroke-miterlimit="10" fill="none" fill-rule="evenodd"/></g><g clip-path="url(#clip42)"><text fill="#595959" font-family="Calibri,Calibri_MSFontService,sans-serif" font-weight="400" font-size="50" transform="matrix(1 0 0 1 1701.53 960)">JsonGeneratorExample</text></g><g clip-path="url(#clip43)"><path d="M1604 1036 1692 1036" stroke="#62AEB2" stroke-width="10.3125" stroke-linecap="round" stroke-linejoin="round" stroke-miterlimit="10" fill="none" fill-rule="evenodd"/></g><g clip-path="url(#clip44)"><text fill="#595959" font-family="Calibri,Calibri_MSFontService,sans-serif" font-weight="400" font-size="50" transform="matrix(1 0 0 1 1701.53 1050)">MsgPackParser</text></g><rect x="1319.5" y="164.5" width="2701" height="1125" stroke="#D9D9D9" stroke-width="3.4375" stroke-linejoin="round" stroke-miterlimit="10" fill="none"/></g></svg>