<svg xmlns="http://www.w3.org/2000/svg" width="791.23" height="367.482" overflow="hidden"><defs><clipPath id="a"><path d="M255 186h770v347H255z" clip-rule="evenodd" fill-rule="evenodd"/></clipPath><clipPath id="b"><path d="M255 186h770v347H255z" clip-rule="evenodd" fill-rule="evenodd"/></clipPath><clipPath id="c"><path d="M255 186h770v347H255z" clip-rule="evenodd" fill-rule="evenodd"/></clipPath><clipPath id="d"><path d="M305 235h706v256H305z" clip-rule="evenodd" fill-rule="evenodd"/></clipPath><clipPath id="e"><path d="M305 235h706v256H305z" clip-rule="evenodd" fill-rule="evenodd"/></clipPath><clipPath id="f"><path d="M255 186h770v347H255z" clip-rule="evenodd" fill-rule="evenodd"/></clipPath><clipPath id="g"><path d="M255 186h770v347H255z" clip-rule="evenodd" fill-rule="evenodd"/></clipPath><clipPath id="h"><path d="M255 186h770v347H255z" clip-rule="evenodd" fill-rule="evenodd"/></clipPath><clipPath id="i"><path d="M255 186h770v347H255z" clip-rule="evenodd" fill-rule="evenodd"/></clipPath><clipPath id="j"><path d="M255 186h770v347H255z" clip-rule="evenodd" fill-rule="evenodd"/></clipPath><clipPath id="k"><path d="M255 186h770v347H255z" clip-rule="evenodd" fill-rule="evenodd"/></clipPath><clipPath id="l"><path d="M255 186h770v347H255z" clip-rule="evenodd" fill-rule="evenodd"/></clipPath><clipPath id="m"><path d="M255 186h770v347H255z" clip-rule="evenodd" fill-rule="evenodd"/></clipPath><clipPath id="n"><path d="M255 186h770v347H255z" clip-rule="evenodd" fill-rule="evenodd"/></clipPath><clipPath id="o"><path d="M255 186h770v347H255z" clip-rule="evenodd" fill-rule="evenodd"/></clipPath><clipPath id="p"><path d="M255 186h770v347H255z" clip-rule="evenodd" fill-rule="evenodd"/></clipPath><clipPath id="q"><path d="M255 186h770v347H255z" clip-rule="evenodd" fill-rule="evenodd"/></clipPath><clipPath id="r"><path d="M255 186h770v347H255z" clip-rule="evenodd" fill-rule="evenodd"/></clipPath><clipPath id="s"><path d="M255 186h770v347H255z" clip-rule="evenodd" fill-rule="evenodd"/></clipPath><clipPath id="t"><path d="M255 186h770v347H255z" clip-rule="evenodd" fill-rule="evenodd"/></clipPath><clipPath id="u"><path d="M255 186h770v347H255z" clip-rule="evenodd" fill-rule="evenodd"/></clipPath><clipPath id="v"><path d="M255 186h770v347H255z" clip-rule="evenodd" fill-rule="evenodd"/></clipPath><clipPath id="w"><path d="M255 186h770v347H255z" clip-rule="evenodd" fill-rule="evenodd"/></clipPath><clipPath id="x"><path d="M255 186h770v347H255z" clip-rule="evenodd" fill-rule="evenodd"/></clipPath><clipPath id="y"><path d="M255 186h770v347H255z" clip-rule="evenodd" fill-rule="evenodd"/></clipPath><clipPath id="z"><path d="M255 186h770v347H255z" clip-rule="evenodd" fill-rule="evenodd"/></clipPath><clipPath id="A"><path d="M255 186h770v347H255z" clip-rule="evenodd" fill-rule="evenodd"/></clipPath><clipPath id="B"><path d="M255 186h770v347H255z" clip-rule="evenodd" fill-rule="evenodd"/></clipPath><clipPath id="C"><path d="M255 186h770v347H255z" clip-rule="evenodd" fill-rule="evenodd"/></clipPath><clipPath id="D"><path d="M255 186h770v347H255z" clip-rule="evenodd" fill-rule="evenodd"/></clipPath><clipPath id="E"><path d="M255 186h770v347H255z" clip-rule="evenodd" fill-rule="evenodd"/></clipPath><clipPath id="F"><path d="M255 186h770v347H255z" clip-rule="evenodd" fill-rule="evenodd"/></clipPath><clipPath id="G"><path d="M255 186h770v347H255z" clip-rule="evenodd" fill-rule="evenodd"/></clipPath><clipPath id="H"><path d="M255 186h770v347H255z" clip-rule="evenodd" fill-rule="evenodd"/></clipPath><clipPath id="I"><path d="M255 186h770v347H255z" clip-rule="evenodd" fill-rule="evenodd"/></clipPath><clipPath id="J"><path d="M255 186h770v347H255z" clip-rule="evenodd" fill-rule="evenodd"/></clipPath><clipPath id="K"><path d="M255 186h770v347H255z" clip-rule="evenodd" fill-rule="evenodd"/></clipPath><clipPath id="L"><path d="M255 186h770v347H255z" clip-rule="evenodd" fill-rule="evenodd"/></clipPath><clipPath id="M"><path d="M255 186h770v347H255z" clip-rule="evenodd" fill-rule="evenodd"/></clipPath><clipPath id="N"><path d="M255 186h770v347H255z" clip-rule="evenodd" fill-rule="evenodd"/></clipPath><clipPath id="O"><path d="M255 186h770v347H255z" clip-rule="evenodd" fill-rule="evenodd"/></clipPath><clipPath id="P"><path d="M255 186h770v347H255z" clip-rule="evenodd" fill-rule="evenodd"/></clipPath><clipPath id="Q"><path d="M255 186h770v347H255z" clip-rule="evenodd" fill-rule="evenodd"/></clipPath><clipPath id="R"><path d="M255 186h770v347H255z" clip-rule="evenodd" fill-rule="evenodd"/></clipPath><clipPath id="S"><path d="M255 186h770v347H255z" clip-rule="evenodd" fill-rule="evenodd"/></clipPath><clipPath id="T"><path d="M255 186h770v347H255z" clip-rule="evenodd" fill-rule="evenodd"/></clipPath><clipPath id="U"><path d="M255 186h770v347H255z" clip-rule="evenodd" fill-rule="evenodd"/></clipPath><clipPath id="V"><path d="M255 186h770v347H255z" clip-rule="evenodd" fill-rule="evenodd"/></clipPath><clipPath id="W"><path d="M255 186h770v347H255z" clip-rule="evenodd" fill-rule="evenodd"/></clipPath><clipPath id="X"><path d="M255 186h770v347H255z" clip-rule="evenodd" fill-rule="evenodd"/></clipPath><clipPath id="Y"><path d="M255 186h770v347H255z" clip-rule="evenodd" fill-rule="evenodd"/></clipPath><clipPath id="Z"><path d="M255 186h770v347H255z" clip-rule="evenodd" fill-rule="evenodd"/></clipPath><clipPath id="aa"><path d="M255 186h770v347H255z" clip-rule="evenodd" fill-rule="evenodd"/></clipPath><clipPath id="ab"><path d="M255 186h770v348H255z" clip-rule="evenodd" fill-rule="evenodd"/></clipPath></defs><g clip-path="url(#a)" transform="translate(-241.789 -182.216)"><path stroke-miterlimit="10" d="M305.5 465.5h705m-705-26h705m-705-25h705m-705-26h705m-705-25h705m-705-26h705m-705-25h705m-705-26h705m-705-25h705m-705-26h705" fill="none" stroke="#d9d9d9" stroke-linejoin="round"/></g><g clip-path="url(#b)" transform="translate(-241.789 -182.216)"><path stroke-miterlimit="10" d="M305.5 235.5v255m23-255v255m24-255v255m23-255v255m24-255v255m23-255v255m24-255v255m23-255v255m24-255v255m23-255v255m24-255v255m23-255v255m24-255v255m23-255v255m24-255v255m23-255v255m24-255v255m23-255v255m24-255v255m23-255v255m24-255v255m23-255v255m24-255v255m23-255v255m24-255v255m23-255v255m24-255v255m23-255v255m24-255v255m23-255v255m24-255v255" fill="none" stroke="#d9d9d9" stroke-linejoin="round"/></g><g clip-path="url(#c)" transform="translate(-241.789 -182.216)"><path stroke-miterlimit="10" d="M305.5 490.5h705" fill="none" stroke="#d9d9d9" stroke-linejoin="round"/></g><g clip-path="url(#d)" transform="translate(-241.789 -182.216)"><path stroke-miterlimit="10" d="M305.5 318.5h47l23-1h47l24-1h23l24 17 23 1h24l23 4h24l23-1 24-8 23-5 24-13 23 9 24-4 23-11 24-26 23 35 24 1h47l23-3 24-1h23l24-1 23 3 24 1" fill="none" stroke="#00878f" stroke-width="3" stroke-linecap="round" stroke-linejoin="round"/></g><g clip-path="url(#e)" transform="translate(-241.789 -182.216)"><path stroke-miterlimit="10" d="M305.5 347.5l23-1h94l24-3h47l23-28 24-15 23 10h47l24-2 23-5 24-7 23 4 24-14 23 4 24-26 23 40 24 39h117l24 1h47" fill="none" stroke="#e47128" stroke-width="3" stroke-linecap="round" stroke-linejoin="round"/></g><g clip-path="url(#f)" transform="translate(-245.789 -182.216)"><text transform="translate(287.987 494)" font-weight="400" font-family="Calibri,Calibri_MSFontService,sans-serif" fill="#595959">0</text></g><g clip-path="url(#g)" transform="translate(-245.789 -182.216)"><text transform="translate(269.747 468)" font-weight="400" font-family="Calibri,Calibri_MSFontService,sans-serif" fill="#595959">1000</text></g><g clip-path="url(#h)" transform="translate(-245.789 -182.216)"><text transform="translate(269.747 443)" font-weight="400" font-family="Calibri,Calibri_MSFontService,sans-serif" fill="#595959">2000</text></g><g clip-path="url(#i)" transform="translate(-245.789 -182.216)"><text transform="translate(269.747 417)" font-weight="400" font-family="Calibri,Calibri_MSFontService,sans-serif" fill="#595959">3000</text></g><g clip-path="url(#j)" transform="translate(-245.789 -182.216)"><text transform="translate(269.747 392)" font-weight="400" font-family="Calibri,Calibri_MSFontService,sans-serif" fill="#595959">4000</text></g><g clip-path="url(#k)" transform="translate(-245.789 -182.216)"><text transform="translate(269.747 366)" font-weight="400" font-family="Calibri,Calibri_MSFontService,sans-serif" fill="#595959">5000</text></g><g clip-path="url(#l)" transform="translate(-245.789 -182.216)"><text transform="translate(269.747 341)" font-weight="400" font-family="Calibri,Calibri_MSFontService,sans-serif" fill="#595959">6000</text></g><g clip-path="url(#m)" transform="translate(-245.789 -182.216)"><text transform="translate(269.747 315)" font-weight="400" font-family="Calibri,Calibri_MSFontService,sans-serif" fill="#595959">7000</text></g><g clip-path="url(#n)" transform="translate(-245.789 -182.216)"><text transform="translate(269.747 290)" font-weight="400" font-family="Calibri,Calibri_MSFontService,sans-serif" fill="#595959">8000</text></g><g clip-path="url(#o)" transform="translate(-245.789 -182.216)"><text transform="translate(269.747 264)" font-weight="400" font-family="Calibri,Calibri_MSFontService,sans-serif" fill="#595959">9000</text></g><g clip-path="url(#p)" transform="translate(-245.789 -182.216)"><text transform="translate(263.667 239)" font-weight="400" font-family="Calibri,Calibri_MSFontService,sans-serif" fill="#595959">10000</text></g><g clip-path="url(#q)" transform="translate(-241.789 -176.216)"><text transform="rotate(-90 413.938 105.062)" font-weight="400" font-family="Calibri,Calibri_MSFontService,sans-serif" fill="#595959">v5.0</text></g><g clip-path="url(#r)" transform="translate(-241.789 -176.216)"><text transform="rotate(-90 425.69 93.31)" font-weight="400" font-family="Calibri,Calibri_MSFontService,sans-serif" fill="#595959">v5.1</text></g><g clip-path="url(#s)" transform="translate(-241.789 -176.216)"><text transform="rotate(-90 437.442 81.558)" font-weight="400" font-family="Calibri,Calibri_MSFontService,sans-serif" fill="#595959">v5.2</text></g><g clip-path="url(#t)" transform="translate(-241.789 -176.216)"><text transform="rotate(-90 449.195 69.805)" font-weight="400" font-family="Calibri,Calibri_MSFontService,sans-serif" fill="#595959">v5.3</text></g><g clip-path="url(#u)" transform="translate(-241.789 -176.216)"><text transform="rotate(-90 460.947 58.053)" font-weight="400" font-family="Calibri,Calibri_MSFontService,sans-serif" fill="#595959">v5.4</text></g><g clip-path="url(#v)" transform="translate(-241.789 -176.216)"><text transform="rotate(-90 472.699 46.301)" font-weight="400" font-family="Calibri,Calibri_MSFontService,sans-serif" fill="#595959">v5.5</text></g><g clip-path="url(#w)" transform="translate(-241.789 -176.216)"><text transform="rotate(-90 484.451 34.549)" font-weight="400" font-family="Calibri,Calibri_MSFontService,sans-serif" fill="#595959">v5.6</text></g><g clip-path="url(#x)" transform="translate(-241.789 -176.216)"><text transform="rotate(-90 496.204 22.796)" font-weight="400" font-family="Calibri,Calibri_MSFontService,sans-serif" fill="#595959">v5.7</text></g><g clip-path="url(#y)" transform="translate(-241.789 -176.216)"><text transform="rotate(-90 507.956 11.044)" font-weight="400" font-family="Calibri,Calibri_MSFontService,sans-serif" fill="#595959">v5.8</text></g><g clip-path="url(#z)" transform="translate(-241.789 -176.216)"><text transform="rotate(-90 519.708 -.708)" font-weight="400" font-family="Calibri,Calibri_MSFontService,sans-serif" fill="#595959">v5.9</text></g><g clip-path="url(#A)" transform="translate(-241.789 -176.216)"><text transform="rotate(-90 534.46 -9.46)" font-weight="400" font-family="Calibri,Calibri_MSFontService,sans-serif" fill="#595959">v5.10</text></g><g clip-path="url(#B)" transform="translate(-241.789 -176.216)"><text transform="rotate(-90 546.212 -21.213)" font-weight="400" font-family="Calibri,Calibri_MSFontService,sans-serif" fill="#595959">v5.11</text></g><g clip-path="url(#C)" transform="translate(-241.789 -176.216)"><text transform="rotate(-90 557.965 -32.965)" font-weight="400" font-family="Calibri,Calibri_MSFontService,sans-serif" fill="#595959">v5.12</text></g><g clip-path="url(#D)" transform="translate(-241.789 -176.216)"><text transform="rotate(-90 569.717 -44.717)" font-weight="400" font-family="Calibri,Calibri_MSFontService,sans-serif" fill="#595959">v5.13</text></g><g clip-path="url(#E)" transform="translate(-241.789 -176.216)"><text transform="rotate(-90 578.469 -59.469)" font-weight="400" font-family="Calibri,Calibri_MSFontService,sans-serif" fill="#595959">v6.0</text></g><g clip-path="url(#F)" transform="translate(-241.789 -176.216)"><text transform="rotate(-90 590.221 -71.222)" font-weight="400" font-family="Calibri,Calibri_MSFontService,sans-serif" fill="#595959">v6.1</text></g><g clip-path="url(#G)" transform="translate(-241.789 -176.216)"><text transform="rotate(-90 601.974 -82.974)" font-weight="400" font-family="Calibri,Calibri_MSFontService,sans-serif" fill="#595959">v6.2</text></g><g clip-path="url(#H)" transform="translate(-241.789 -176.216)"><text transform="rotate(-90 613.726 -94.726)" font-weight="400" font-family="Calibri,Calibri_MSFontService,sans-serif" fill="#595959">v6.3</text></g><g clip-path="url(#I)" transform="translate(-241.789 -176.216)"><text transform="rotate(-90 625.478 -106.478)" font-weight="400" font-family="Calibri,Calibri_MSFontService,sans-serif" fill="#595959">v6.4</text></g><g clip-path="url(#J)" transform="translate(-241.789 -176.216)"><text transform="rotate(-90 637.23 -118.23)" font-weight="400" font-family="Calibri,Calibri_MSFontService,sans-serif" fill="#595959">v6.5</text></g><g clip-path="url(#K)" transform="translate(-241.789 -176.216)"><text transform="rotate(-90 648.983 -129.983)" font-weight="400" font-family="Calibri,Calibri_MSFontService,sans-serif" fill="#595959">v6.6</text></g><g clip-path="url(#L)" transform="translate(-241.789 -176.216)"><text transform="rotate(-90 660.735 -141.735)" font-weight="400" font-family="Calibri,Calibri_MSFontService,sans-serif" fill="#595959">v6.7</text></g><g clip-path="url(#M)" transform="translate(-241.789 -176.216)"><text transform="rotate(-90 672.487 -153.487)" font-weight="400" font-family="Calibri,Calibri_MSFontService,sans-serif" fill="#595959">v6.8</text></g><g clip-path="url(#N)" transform="translate(-241.789 -176.216)"><text transform="rotate(-90 684.24 -165.24)" font-weight="400" font-family="Calibri,Calibri_MSFontService,sans-serif" fill="#595959">v6.9</text></g><g clip-path="url(#O)" transform="translate(-241.789 -176.216)"><text transform="rotate(-90 695.991 -176.992)" font-weight="400" font-family="Calibri,Calibri_MSFontService,sans-serif" fill="#595959">v6.9</text></g><g clip-path="url(#P)" transform="translate(-241.789 -176.216)"><text transform="rotate(-90 710.744 -185.744)" font-weight="400" font-family="Calibri,Calibri_MSFontService,sans-serif" fill="#595959">v6.10</text></g><g clip-path="url(#Q)" transform="translate(-241.789 -176.216)"><text transform="rotate(-90 722.496 -197.496)" font-weight="400" font-family="Calibri,Calibri_MSFontService,sans-serif" fill="#595959">v6.11</text></g><g clip-path="url(#R)" transform="translate(-241.789 -176.216)"><text transform="rotate(-90 734.248 -209.248)" font-weight="400" font-family="Calibri,Calibri_MSFontService,sans-serif" fill="#595959">v6.12</text></g><g clip-path="url(#S)" transform="translate(-241.789 -176.216)"><text transform="rotate(-90 746 -221)" font-weight="400" font-family="Calibri,Calibri_MSFontService,sans-serif" fill="#595959">v6.13</text></g><g clip-path="url(#T)" transform="translate(-241.789 -176.216)"><text transform="rotate(-90 757.753 -232.753)" font-weight="400" font-family="Calibri,Calibri_MSFontService,sans-serif" fill="#595959">v6.14</text></g><g clip-path="url(#U)" transform="translate(-241.789 -176.216)"><text transform="rotate(-90 769.505 -244.505)" font-weight="400" font-family="Calibri,Calibri_MSFontService,sans-serif" fill="#595959">v6.15</text></g><g clip-path="url(#V)" transform="translate(-241.789 -182.216)"><text transform="translate(546.867 214)" font-size="19" font-weight="400" font-family="Calibri,Calibri_MSFontService,sans-serif" fill="#595959">Code size on ATmega328</text></g><g clip-path="url(#W)" transform="translate(-241.789 -182.216)"><path d="M312 407h196v70H312z" fill="#e7e6e6"/></g><g clip-path="url(#X)" transform="translate(-241.789 -182.216)"><path stroke-miterlimit="10" d="M327.5 424.5h25" fill="none" stroke="#00878f" stroke-width="3" stroke-linecap="round" stroke-linejoin="round"/></g><g clip-path="url(#Y)" transform="translate(-241.789 -182.216)"><text transform="translate(355.303 429)" font-size="15" font-weight="400" font-family="Calibri,Calibri_MSFontService,sans-serif" fill="#595959">JsonParserExample</text></g><g clip-path="url(#Z)" transform="translate(-241.789 -182.216)"><path stroke-miterlimit="10" d="M327.5 459.5h25" fill="none" stroke="#e47128" stroke-width="3" stroke-linecap="round" stroke-linejoin="round"/></g><g clip-path="url(#aa)" transform="translate(-241.789 -182.216)"><text transform="translate(355.303 464)" font-size="15" font-weight="400" font-family="Calibri,Calibri_MSFontService,sans-serif" fill="#595959">JsonGeneratorExample</text></g><g clip-path="url(#ab)" transform="translate(-241.789 -182.216)"><path stroke-miterlimit="8" d="M634.5 235.5l.978 255.611" fill="none" stroke="#000"/></g></svg>